<svg width="562" height="528" xmlns="http://www.w3.org/2000/svg" preserveAspectRatio="xMidYMid meet" version="1.0">

 <g>
  <title>Layer 1</title>
  <g id="svg_1" fill="#000000" transform="translate(0 528) scale(0.1 -0.1)">
   <path id="svg_2" d="m2610.76923,5093c-255,-25 -501,-85 -695,-168c-375,-161 -694,-415 -941,-751c-71,-95 -159,-242 -150,-251c3,-3 27,-14 53,-23c27,-9 55,-20 63,-23c11,-5 28,16 63,74c114,189 304,406 472,539c289,229 600,368 970,435c125,22 404,31 546,16c647,-68 1216,-425 1562,-980c33,-53 61,-97 62,-98c1,-2 18,6 39,16c20,11 51,24 67,30l30,10l-27,48c-15,26 -61,98 -102,158c-370,546 -968,900 -1631,965c-96,9 -302,11 -381,3z"/>
   <path id="svg_3" d="m2692,4519c-143,-18 -257,-74 -363,-179c-121,-121 -180,-262 -180,-435c-1,-174 56,-311 181,-435c152,-153 351,-216 555,-176c278,54 484,289 501,571c25,388 -308,701 -694,654zm206,-166c113,-28 232,-124 287,-232c121,-239 27,-522 -211,-637c-185,-90 -393,-56 -537,87c-229,230 -166,610 125,753c112,55 201,63 336,29z"/>
   <path id="svg_4" d="m4776,3784c-141,-45 -228,-161 -227,-302c0,-37 5,-82 10,-100l10,-33l-57,-25c-459,-206 -961,-353 -1397,-410c-159,-21 -554,-24 -695,-6c-390,51 -727,139 -1105,287c-164,64 -315,131 -315,138c0,3 7,24 15,47c48,136 -20,300 -156,375c-49,27 -62,30 -149,30c-80,0 -102,-4 -138,-23c-66,-35 -119,-88 -149,-150c-24,-49 -28,-69 -28,-142c0,-69 5,-94 25,-135c77,-157 267,-225 423,-153l58,28l112,-52c335,-153 766,-291 1101,-352c154,-29 377,-56 459,-56c31,0 57,-3 57,-6c0,-3 -69,-110 -153,-237c-84,-128 -287,-438 -452,-689l-300,-456l-30,6c-16,4 -59,7 -95,6c-77,0 -139,-25 -199,-79c-54,-49 -77,-89 -97,-165c-36,-142 31,-285 169,-357c45,-24 63,-28 142,-28c78,0 97,4 141,27c111,58 174,161 175,284c1,75 -13,123 -53,183l-29,43l100,152c132,200 279,424 568,863c131,200 240,363 243,363c3,-1 212,-311 465,-691c392,-589 457,-693 447,-707c-95,-134 -94,-287 1,-404c146,-180 432,-147 534,60c24,49 28,69 28,142c0,100 -23,159 -89,225c-65,64 -126,89 -221,88c-44,0 -89,-2 -100,-4c-17,-3 -97,111 -477,681c-252,376 -458,687 -458,690c0,4 63,12 140,18c457,39 1064,208 1541,430l87,40l67,-34c57,-29 78,-34 136,-34c90,0 165,28 223,84c138,135 136,343 -5,471c-80,72 -205,101 -303,69zm181,-165c96,-60 105,-192 17,-269c-41,-36 -70,-44 -131,-37c-136,15 -194,181 -97,281c57,59 140,69 211,25zm-4162,-2c129,-73 103,-267 -41,-307c-57,-16 -101,-7 -148,32c-68,56 -83,130 -43,208c42,84 148,115 232,67zm895,-2409c52,-27 78,-60 90,-114c38,-167 -182,-276 -293,-145c-74,89 -47,215 57,262c54,25 93,24 146,-3zm2287,11c38,-14 83,-57 99,-96c63,-148 -102,-290 -242,-208c-47,28 -84,90 -84,143c0,114 123,201 227,161z"/>
   <path id="svg_5" d="m556,3011c-9,-56 -7,-225 4,-345c27,-280 101,-538 230,-796c90,-179 188,-323 333,-487c73,-83 107,-110 107,-84c0,4 18,28 39,53l40,45l-68,74c-353,394 -541,879 -541,1401c0,135 -2,148 -18,148c-10,0 -41,6 -69,13l-51,14l-6,-36z"/>
   <path id="svg_6" d="m4918,3027l-58,-10l0,-165c0,-186 -16,-318 -61,-497c-83,-331 -254,-642 -498,-906c-53,-59 -59,-68 -45,-80c9,-7 30,-33 47,-58l31,-45l73,80c225,242 392,523 493,833c79,242 110,438 110,704c0,178 10,162 -92,144z"/>
   <path id="svg_7" d="m2020,855c-18,-36 -31,-67 -29,-69c2,-2 56,-20 119,-40c353,-112 750,-134 1105,-61c114,23 259,63 316,86l27,10l-32,64c-21,43 -36,63 -46,61c-8,-2 -55,-16 -104,-30c-224,-66 -425,-91 -666,-83c-223,8 -391,37 -581,102c-41,14 -74,25 -75,25c-1,0 -16,-29 -34,-65z"/>
  </g>
  <g id="svg_14">
   <ellipse stroke="#000000" ry="31.755" rx="31.61774" id="svg_12" cy="180.76849" cx="486.93209" fill="#000000"/>
   <ellipse stroke="#00c9f7" ry="16.44976" rx="16.37799" id="svg_10" cy="180.90358" cx="487.14458" fill="#0fc9f7"/>
  </g>
  <g id="svg_20">
   <ellipse stroke="#000000" ry="31.755" rx="31.61774" id="svg_18" cy="422.25207" cx="161.62995" fill="#000000"/>
   <ellipse stroke="#00c9f7" ry="16.44976" rx="16.37799" id="svg_19" cy="422.38716" cx="161.84244" fill="#0fc9f7"/>
  </g>
  <g id="svg_23">
   <ellipse stroke="#000000" ry="31.755" rx="31.61774" id="svg_21" cy="422.25207" cx="392.34424" fill="#000000"/>
   <ellipse stroke="#00c9f7" ry="16.44976" rx="16.37799" id="svg_22" cy="422.38716" cx="392.55673" fill="#0fc9f7"/>
  </g>
  <g id="svg_28">
   <ellipse stroke="#000000" ry="31.755" rx="31.61774" id="svg_26" cy="180.69744" cx="70.87363" fill="#000000"/>
   <ellipse stroke="#00c9f7" ry="16.44976" rx="16.37799" id="svg_27" cy="180.83254" cx="71.08613" fill="#0fc9f7"/>
  </g>
  <g id="svg_29">
   <path id="svg_15" d="m277.12362,199.23815c-34.14161,0 -61.79631,-27.63621 -61.79631,-61.75499c0,-34.11878 27.6547,-61.755 61.79631,-61.755c34.14161,0 61.79631,27.63622 61.79631,61.755c0,34.11878 -27.6547,61.75499 -61.79631,61.75499z" opacity="undefined" stroke="#000000" fill="#000000"/>
   <ellipse stroke="#00c9f7" ry="46.57731" rx="46.55656" id="svg_16" cy="137.60965" cx="276.97899" fill="#0fc9f7"/>
  </g>
 </g>
</svg>